<svg xmlns="http://www.w3.org/2000/svg" viewBox="0 0 144 144">
  <style>@media (prefers-color-scheme:dark){.a{fill:#d6c8bb}}</style>
  <path class="a" d="M33.4 44.7c-.3.7-.3 5.2 0 9.9l.6 8.3-2.7-2.6c-2.2-2.2-3.8-2.7-8-3Q8 56 8.3 76c.2 8.1 1.2 12 4.4 15.6 4.4 5.1 12.5 5.3 18.1.3l3.2-2.7v2.8c0 2.9.1 2.9 4.6 2.9h4.6V43.2h-4.6c-3.4 0-4.7.4-5.2 1.5M30.1 65c4.3 3 4.6 17.3.5 21.8-2 2.3-7.8 2.2-10-.3-1.8-2-3-12.4-1.8-17 1.3-5.3 7-7.6 11.3-4.5m16.8-6.3c0 1 2 9.3 4.5 18.7l4.4 17 10.3.6 1-3.5 3.8-15L74 65l7.4 29.8h5.4c3 0 5.3-.2 5.3-.5l4.6-18a331 331 0 0 0 4.6-18.3q-.2-1-4.3-.8l-4.3.3-3 13.2C88 77.9 86.5 84 86.3 84.2s-1.6-4.4-3-10.4c-4.5-18.8-3.5-16.9-9.4-16.6l-5.2.3-3 11-3.6 13.8c-.6 2.4-1.1 1-3.3-9.2l-3.1-14c-.5-1.8-1.1-2-4.6-2s-4.2.2-4.2 1.5"/>
  <path fill="#156b6e" d="M127.9 53c0 8-.2 9.7-1.1 8.5q-3.6-4.6-10.6-4.5c-4 0-5.3.5-8 2.8-3.8 3.4-5.2 8-5.2 17.1.1 11.3 3.3 16.8 10.8 18.3 4 .8 10-1 12.1-3.8l2-2.4v3c0 2.6.2 2.8 3.2 2.8h3.2V43.2H128zm-4 10c4.2 2.9 5.4 15.4 2.2 22.3A8.6 8.6 0 0 1 115 90c-4-1.4-5.6-5.3-5.6-13.5-.1-7.5 1.1-11.6 3.7-13.6 2-1.6 8.5-1.5 11 .1"/>
</svg>
